<svg id="Слой_1" data-name="Слой 1" xmlns="http://www.w3.org/2000/svg" viewBox="0 0 463.69 276.29"><defs><style>.cls-1{fill:#317b79;}.cls-2,.cls-3{fill:none;stroke:#317b79;stroke-miterlimit:10;}.cls-3{stroke-width:7px;}</style></defs><path class="cls-1" d="M1170.67,362.74H868.52A23.52,23.52,0,0,0,845,386.26V495.77a23.52,23.52,0,0,0,23.52,23.52h302.15a23.52,23.52,0,0,0,23.52-23.52V386.26A23.52,23.52,0,0,0,1170.67,362.74Zm-46.76,25.08a2.9,2.9,0,0,1,2.9-2.9h13.24a2.9,2.9,0,0,1,2.9,2.9v14a2.89,2.89,0,0,1-2.9,2.89h-13.24a2.89,2.89,0,0,1-2.9-2.89Zm0,32.21a2.9,2.9,0,0,1,2.9-2.9h13.24a2.9,2.9,0,0,1,2.9,2.9v14a2.89,2.89,0,0,1-2.9,2.89h-13.24a2.89,2.89,0,0,1-2.9-2.89Zm2.93,32.21v14a2.9,2.9,0,0,1-2.9,2.9h-13.23a2.9,2.9,0,0,1-2.9-2.9v-14a2.9,2.9,0,0,1,2.9-2.9h13.23A2.9,2.9,0,0,1,1126.84,452.24Zm-31.48-64.42a2.9,2.9,0,0,1,2.9-2.9h13.24a2.9,2.9,0,0,1,2.9,2.9v14a2.89,2.89,0,0,1-2.9,2.89h-13.24a2.89,2.89,0,0,1-2.9-2.89Zm0,32.21a2.9,2.9,0,0,1,2.9-2.9h13.24a2.9,2.9,0,0,1,2.9,2.9v14a2.89,2.89,0,0,1-2.9,2.89h-13.24a2.89,2.89,0,0,1-2.9-2.89Zm3.66,32.21v14a2.9,2.9,0,0,1-2.9,2.9h-13.23a2.9,2.9,0,0,1-2.9-2.9v-14a2.9,2.9,0,0,1,2.9-2.9h13.23A2.9,2.9,0,0,1,1099,452.24Zm-32.21-64.42a2.9,2.9,0,0,1,2.9-2.9H1083a2.9,2.9,0,0,1,2.9,2.9v14a2.89,2.89,0,0,1-2.9,2.89h-13.24a2.89,2.89,0,0,1-2.9-2.89Zm0,32.21a2.9,2.9,0,0,1,2.9-2.9H1083a2.9,2.9,0,0,1,2.9,2.9v14a2.89,2.89,0,0,1-2.9,2.89h-13.24a2.89,2.89,0,0,1-2.9-2.89Zm3.66,32.21v14a2.9,2.9,0,0,1-2.9,2.9h-13.23a2.9,2.9,0,0,1-2.9-2.9v-14a2.9,2.9,0,0,1,2.9-2.9h13.23A2.9,2.9,0,0,1,1070.47,452.24Zm-32.94-64.42a2.9,2.9,0,0,1,2.9-2.9h13.23a2.9,2.9,0,0,1,2.9,2.9v14a2.89,2.89,0,0,1-2.9,2.89h-13.23a2.89,2.89,0,0,1-2.9-2.89Zm0,32.21a2.9,2.9,0,0,1,2.9-2.9h13.23a2.9,2.9,0,0,1,2.9,2.9v14a2.89,2.89,0,0,1-2.9,2.89h-13.23a2.89,2.89,0,0,1-2.9-2.89Zm3.66,32.21v14a2.9,2.9,0,0,1-2.9,2.9h-13.23a2.9,2.9,0,0,1-2.9-2.9v-14a2.9,2.9,0,0,1,2.9-2.9h13.23A2.9,2.9,0,0,1,1041.19,452.24ZM1009,387.82a2.9,2.9,0,0,1,2.9-2.9h13.23a2.9,2.9,0,0,1,2.9,2.9v14a2.89,2.89,0,0,1-2.9,2.89h-13.23a2.89,2.89,0,0,1-2.9-2.89Zm0,32.21a2.9,2.9,0,0,1,2.9-2.9h13.23a2.9,2.9,0,0,1,2.9,2.9v14a2.89,2.89,0,0,1-2.9,2.89h-13.23A2.89,2.89,0,0,1,1009,434Zm5.12,32.21v14a2.89,2.89,0,0,1-2.89,2.9H998a2.9,2.9,0,0,1-2.9-2.9v-14a2.9,2.9,0,0,1,2.9-2.9h13.24A2.89,2.89,0,0,1,1014.1,452.24Zm-33.67-64.42a2.9,2.9,0,0,1,2.9-2.9h13.23a2.9,2.9,0,0,1,2.9,2.9v14a2.89,2.89,0,0,1-2.9,2.89H983.33a2.89,2.89,0,0,1-2.9-2.89Zm0,32.21a2.9,2.9,0,0,1,2.9-2.9h13.23a2.9,2.9,0,0,1,2.9,2.9v14a2.89,2.89,0,0,1-2.9,2.89H983.33a2.89,2.89,0,0,1-2.9-2.89Zm5.12,32.21v14a2.89,2.89,0,0,1-2.89,2.9H969.42a2.9,2.9,0,0,1-2.9-2.9v-14a2.9,2.9,0,0,1,2.9-2.9h13.24A2.89,2.89,0,0,1,985.55,452.24Zm-34.4-64.42a2.9,2.9,0,0,1,2.9-2.9h13.23a2.9,2.9,0,0,1,2.9,2.9v14a2.89,2.89,0,0,1-2.9,2.89H954.05a2.89,2.89,0,0,1-2.9-2.89Zm0,32.21a2.9,2.9,0,0,1,2.9-2.9h13.23a2.9,2.9,0,0,1,2.9,2.9v14a2.89,2.89,0,0,1-2.9,2.89H954.05a2.89,2.89,0,0,1-2.9-2.89ZM957,452.24v14a2.89,2.89,0,0,1-2.89,2.9H940.87a2.9,2.9,0,0,1-2.9-2.9v-14a2.9,2.9,0,0,1,2.9-2.9h13.24A2.89,2.89,0,0,1,957,452.24Zm-34.4-64.42a2.9,2.9,0,0,1,2.9-2.9h13.23a2.9,2.9,0,0,1,2.9,2.9v14a2.89,2.89,0,0,1-2.9,2.89H925.5a2.89,2.89,0,0,1-2.9-2.89Zm0,32.21a2.9,2.9,0,0,1,2.9-2.9h13.23a2.9,2.9,0,0,1,2.9,2.9v14a2.89,2.89,0,0,1-2.9,2.89H925.5a2.89,2.89,0,0,1-2.9-2.89Zm6.59,32.21v14a2.9,2.9,0,0,1-2.9,2.9H913.05a2.9,2.9,0,0,1-2.9-2.9v-14a2.9,2.9,0,0,1,2.9-2.9h13.24A2.9,2.9,0,0,1,929.19,452.24Zm-35.14-64.42a2.9,2.9,0,0,1,2.9-2.9h13.23a2.9,2.9,0,0,1,2.9,2.9v14a2.89,2.89,0,0,1-2.9,2.89H897a2.89,2.89,0,0,1-2.9-2.89Zm0,32.21a2.9,2.9,0,0,1,2.9-2.9h13.23a2.9,2.9,0,0,1,2.9,2.9v14a2.89,2.89,0,0,1-2.9,2.89H897a2.89,2.89,0,0,1-2.9-2.89ZM865.5,387.82a2.9,2.9,0,0,1,2.9-2.9h13.23a2.9,2.9,0,0,1,2.9,2.9v14a2.89,2.89,0,0,1-2.9,2.89H868.4a2.89,2.89,0,0,1-2.9-2.89Zm0,32.21a2.9,2.9,0,0,1,2.9-2.9h13.23a2.9,2.9,0,0,1,2.9,2.9v14a2.89,2.89,0,0,1-2.9,2.89H868.4a2.89,2.89,0,0,1-2.9-2.89Zm0,32.21a2.9,2.9,0,0,1,2.9-2.9h32.27a2.89,2.89,0,0,1,2.89,2.9v14a2.89,2.89,0,0,1-2.89,2.9H868.4a2.9,2.9,0,0,1-2.9-2.9Zm19,46.18a2.9,2.9,0,0,1-2.9,2.9H868.4a2.9,2.9,0,0,1-2.9-2.9v-14a2.9,2.9,0,0,1,2.9-2.9h13.23a2.9,2.9,0,0,1,2.9,2.9Zm28.55,0a2.9,2.9,0,0,1-2.9,2.9H897a2.9,2.9,0,0,1-2.9-2.9v-14a2.9,2.9,0,0,1,2.9-2.9h13.23a2.9,2.9,0,0,1,2.9,2.9Zm28.55,0a2.9,2.9,0,0,1-2.9,2.9H925.5a2.9,2.9,0,0,1-2.9-2.9v-14a2.9,2.9,0,0,1,2.9-2.9h13.23a2.9,2.9,0,0,1,2.9,2.9Zm144.22,0a2.9,2.9,0,0,1-2.9,2.9H952.58a2.9,2.9,0,0,1-2.9-2.9v-14a2.9,2.9,0,0,1,2.9-2.9H1083a2.9,2.9,0,0,1,2.9,2.9Zm28.55,0a2.9,2.9,0,0,1-2.9,2.9h-13.24a2.9,2.9,0,0,1-2.9-2.9v-14a2.9,2.9,0,0,1,2.9-2.9h13.24a2.9,2.9,0,0,1,2.9,2.9Zm28.55,0a2.9,2.9,0,0,1-2.9,2.9h-13.24a2.9,2.9,0,0,1-2.9-2.9v-14a2.9,2.9,0,0,1,2.9-2.9h13.24a2.9,2.9,0,0,1,2.9,2.9Zm28.55,0a2.9,2.9,0,0,1-2.9,2.9h-13.24a2.9,2.9,0,0,1-2.9-2.9v-14a2.9,2.9,0,0,1,2.9-2.9h13.24a2.9,2.9,0,0,1,2.9,2.9Zm0-32.21a2.9,2.9,0,0,1-2.9,2.9h-32.27a2.9,2.9,0,0,1-2.9-2.9v-14a2.9,2.9,0,0,1,2.9-2.9h32.27a2.9,2.9,0,0,1,2.9,2.9Zm0-32.21a2.89,2.89,0,0,1-2.9,2.89h-13.24a2.89,2.89,0,0,1-2.9-2.89V420a2.9,2.9,0,0,1,2.9-2.9h13.24a2.9,2.9,0,0,1,2.9,2.9Zm0-32.21a2.89,2.89,0,0,1-2.9,2.89h-13.24a2.89,2.89,0,0,1-2.9-2.89v-14a2.9,2.9,0,0,1,2.9-2.9h13.24a2.9,2.9,0,0,1,2.9,2.9Z" transform="translate(-730.5 -243)"/><path class="cls-2" d="M1094.5,289.5h0Z" transform="translate(-730.5 -243)"/><path class="cls-2" d="M1094.5,289.5h0Z" transform="translate(-730.5 -243)"/><path class="cls-1" d="M1170.67,362.74H868.52A23.52,23.52,0,0,0,845,386.26V495.77a23.52,23.52,0,0,0,23.52,23.52h302.15a23.52,23.52,0,0,0,23.52-23.52V386.26A23.52,23.52,0,0,0,1170.67,362.74Zm-46.76,25.08a2.9,2.9,0,0,1,2.9-2.9h13.24a2.9,2.9,0,0,1,2.9,2.9v14a2.89,2.89,0,0,1-2.9,2.89h-13.24a2.89,2.89,0,0,1-2.9-2.89Zm0,32.21a2.9,2.9,0,0,1,2.9-2.9h13.24a2.9,2.9,0,0,1,2.9,2.9v14a2.89,2.89,0,0,1-2.9,2.89h-13.24a2.89,2.89,0,0,1-2.9-2.89Zm2.93,32.21v14a2.9,2.9,0,0,1-2.9,2.9h-13.23a2.9,2.9,0,0,1-2.9-2.9v-14a2.9,2.9,0,0,1,2.9-2.9h13.23A2.9,2.9,0,0,1,1126.84,452.24Zm-31.48-64.42a2.9,2.9,0,0,1,2.9-2.9h13.24a2.9,2.9,0,0,1,2.9,2.9v14a2.89,2.89,0,0,1-2.9,2.89h-13.24a2.89,2.89,0,0,1-2.9-2.89Zm0,32.21a2.9,2.9,0,0,1,2.9-2.9h13.24a2.9,2.9,0,0,1,2.9,2.9v14a2.89,2.89,0,0,1-2.9,2.89h-13.24a2.89,2.89,0,0,1-2.9-2.89Zm3.66,32.21v14a2.9,2.9,0,0,1-2.9,2.9h-13.23a2.9,2.9,0,0,1-2.9-2.9v-14a2.9,2.9,0,0,1,2.9-2.9h13.23A2.9,2.9,0,0,1,1099,452.24Zm-32.21-64.42a2.9,2.9,0,0,1,2.9-2.9H1083a2.9,2.9,0,0,1,2.9,2.9v14a2.89,2.89,0,0,1-2.9,2.89h-13.24a2.89,2.89,0,0,1-2.9-2.89Zm0,32.21a2.9,2.9,0,0,1,2.9-2.9H1083a2.9,2.9,0,0,1,2.9,2.9v14a2.89,2.89,0,0,1-2.9,2.89h-13.24a2.89,2.89,0,0,1-2.9-2.89Zm3.66,32.21v14a2.9,2.9,0,0,1-2.9,2.9h-13.23a2.9,2.9,0,0,1-2.9-2.9v-14a2.9,2.9,0,0,1,2.9-2.9h13.23A2.9,2.9,0,0,1,1070.47,452.24Zm-32.94-64.42a2.9,2.9,0,0,1,2.9-2.9h13.23a2.9,2.9,0,0,1,2.9,2.9v14a2.89,2.89,0,0,1-2.9,2.89h-13.23a2.89,2.89,0,0,1-2.9-2.89Zm0,32.21a2.9,2.9,0,0,1,2.9-2.9h13.23a2.9,2.9,0,0,1,2.9,2.9v14a2.89,2.89,0,0,1-2.9,2.89h-13.23a2.89,2.89,0,0,1-2.9-2.89Zm3.66,32.21v14a2.9,2.9,0,0,1-2.9,2.9h-13.23a2.9,2.9,0,0,1-2.9-2.9v-14a2.9,2.9,0,0,1,2.9-2.9h13.23A2.9,2.9,0,0,1,1041.19,452.24ZM1009,387.82a2.9,2.9,0,0,1,2.9-2.9h13.23a2.9,2.9,0,0,1,2.9,2.9v14a2.89,2.89,0,0,1-2.9,2.89h-13.23a2.89,2.89,0,0,1-2.9-2.89Zm0,32.21a2.9,2.9,0,0,1,2.9-2.9h13.23a2.9,2.9,0,0,1,2.9,2.9v14a2.89,2.89,0,0,1-2.9,2.89h-13.23A2.89,2.89,0,0,1,1009,434Zm5.12,32.21v14a2.89,2.89,0,0,1-2.89,2.9H998a2.9,2.9,0,0,1-2.9-2.9v-14a2.9,2.9,0,0,1,2.9-2.9h13.24A2.89,2.89,0,0,1,1014.1,452.24Zm-33.67-64.42a2.9,2.9,0,0,1,2.9-2.9h13.23a2.9,2.9,0,0,1,2.9,2.9v14a2.89,2.89,0,0,1-2.9,2.89H983.33a2.89,2.89,0,0,1-2.9-2.89Zm0,32.21a2.9,2.9,0,0,1,2.9-2.9h13.23a2.9,2.9,0,0,1,2.9,2.9v14a2.89,2.89,0,0,1-2.9,2.89H983.33a2.89,2.89,0,0,1-2.9-2.89Zm5.12,32.21v14a2.89,2.89,0,0,1-2.89,2.9H969.42a2.9,2.9,0,0,1-2.9-2.9v-14a2.9,2.9,0,0,1,2.9-2.9h13.24A2.89,2.89,0,0,1,985.55,452.24Zm-34.4-64.42a2.9,2.9,0,0,1,2.9-2.9h13.23a2.9,2.9,0,0,1,2.9,2.9v14a2.89,2.89,0,0,1-2.9,2.89H954.05a2.89,2.89,0,0,1-2.9-2.89Zm0,32.21a2.9,2.9,0,0,1,2.9-2.9h13.23a2.9,2.9,0,0,1,2.9,2.9v14a2.89,2.89,0,0,1-2.9,2.89H954.05a2.89,2.89,0,0,1-2.9-2.89ZM957,452.24v14a2.89,2.89,0,0,1-2.89,2.9H940.87a2.9,2.9,0,0,1-2.9-2.9v-14a2.9,2.9,0,0,1,2.9-2.9h13.24A2.89,2.89,0,0,1,957,452.24Zm-34.4-64.42a2.9,2.9,0,0,1,2.9-2.9h13.23a2.9,2.9,0,0,1,2.9,2.9v14a2.89,2.89,0,0,1-2.9,2.89H925.5a2.89,2.89,0,0,1-2.9-2.89Zm0,32.21a2.9,2.9,0,0,1,2.9-2.9h13.23a2.9,2.9,0,0,1,2.9,2.9v14a2.89,2.89,0,0,1-2.9,2.89H925.5a2.89,2.89,0,0,1-2.9-2.89Zm6.59,32.21v14a2.9,2.9,0,0,1-2.9,2.9H913.05a2.9,2.9,0,0,1-2.9-2.9v-14a2.9,2.9,0,0,1,2.9-2.9h13.24A2.9,2.9,0,0,1,929.19,452.24Zm-35.14-64.42a2.9,2.9,0,0,1,2.9-2.9h13.23a2.9,2.9,0,0,1,2.9,2.9v14a2.89,2.89,0,0,1-2.9,2.89H897a2.89,2.89,0,0,1-2.9-2.89Zm0,32.21a2.9,2.9,0,0,1,2.9-2.9h13.23a2.9,2.9,0,0,1,2.9,2.9v14a2.89,2.89,0,0,1-2.9,2.89H897a2.89,2.89,0,0,1-2.9-2.89ZM865.5,387.82a2.9,2.9,0,0,1,2.9-2.9h13.23a2.9,2.9,0,0,1,2.9,2.9v14a2.89,2.89,0,0,1-2.9,2.89H868.4a2.89,2.89,0,0,1-2.9-2.89Zm0,32.21a2.9,2.9,0,0,1,2.9-2.9h13.23a2.9,2.9,0,0,1,2.9,2.9v14a2.89,2.89,0,0,1-2.9,2.89H868.4a2.89,2.89,0,0,1-2.9-2.89Zm0,32.21a2.9,2.9,0,0,1,2.9-2.9h32.27a2.89,2.89,0,0,1,2.89,2.9v14a2.89,2.89,0,0,1-2.89,2.9H868.4a2.9,2.9,0,0,1-2.9-2.9Zm19,46.18a2.9,2.9,0,0,1-2.9,2.9H868.4a2.9,2.9,0,0,1-2.9-2.9v-14a2.9,2.9,0,0,1,2.9-2.9h13.23a2.9,2.9,0,0,1,2.9,2.9Zm28.55,0a2.9,2.9,0,0,1-2.9,2.9H897a2.9,2.9,0,0,1-2.9-2.9v-14a2.9,2.9,0,0,1,2.9-2.9h13.23a2.9,2.9,0,0,1,2.9,2.9Zm28.55,0a2.9,2.9,0,0,1-2.9,2.9H925.5a2.9,2.9,0,0,1-2.9-2.9v-14a2.9,2.9,0,0,1,2.9-2.9h13.23a2.9,2.9,0,0,1,2.9,2.9Zm144.22,0a2.9,2.9,0,0,1-2.9,2.9H952.58a2.9,2.9,0,0,1-2.9-2.9v-14a2.9,2.9,0,0,1,2.9-2.9H1083a2.9,2.9,0,0,1,2.9,2.9Zm28.55,0a2.9,2.9,0,0,1-2.9,2.9h-13.24a2.9,2.9,0,0,1-2.9-2.9v-14a2.9,2.9,0,0,1,2.9-2.9h13.24a2.9,2.9,0,0,1,2.9,2.9Zm28.55,0a2.9,2.9,0,0,1-2.9,2.9h-13.24a2.9,2.9,0,0,1-2.9-2.9v-14a2.9,2.9,0,0,1,2.9-2.9h13.24a2.9,2.9,0,0,1,2.9,2.9Zm28.55,0a2.9,2.9,0,0,1-2.9,2.9h-13.24a2.9,2.9,0,0,1-2.9-2.9v-14a2.9,2.9,0,0,1,2.9-2.9h13.24a2.9,2.9,0,0,1,2.9,2.9Zm0-32.21a2.9,2.9,0,0,1-2.9,2.9h-32.27a2.9,2.9,0,0,1-2.9-2.9v-14a2.9,2.9,0,0,1,2.9-2.9h32.27a2.9,2.9,0,0,1,2.9,2.9Zm0-32.21a2.89,2.89,0,0,1-2.9,2.89h-13.24a2.89,2.89,0,0,1-2.9-2.89V420a2.9,2.9,0,0,1,2.9-2.9h13.24a2.9,2.9,0,0,1,2.9,2.9Zm0-32.21a2.89,2.89,0,0,1-2.9,2.89h-13.24a2.89,2.89,0,0,1-2.9-2.89v-14a2.9,2.9,0,0,1,2.9-2.9h13.24a2.9,2.9,0,0,1,2.9,2.9Z" transform="translate(-730.5 -243)"/><path class="cls-1" d="M1072,243H758c-12.7,0-23,12.8-23,28.59V289h360V271.59C1095,255.8,1084.7,243,1072,243Zm-7,31a8,8,0,1,1,8-8A8,8,0,0,1,1065,274Z" transform="translate(-730.5 -243)"/><path class="cls-3" d="M1095,347V272.05a23.37,23.37,0,0,0-23.37-23.37H757.37A23.37,23.37,0,0,0,734,272.05V485.63A23.37,23.37,0,0,0,757.37,509h71.22" transform="translate(-730.5 -243)"/></svg>